<?xml version="1.0" encoding="UTF-8"?>
<svg width="24px" height="24px" viewBox="0 0 24 24" version="1.1" xmlns="http://www.w3.org/2000/svg" xmlns:xlink="http://www.w3.org/1999/xlink">
    <!-- Generator: Sketch 42 (36781) - http://www.bohemiancoding.com/sketch -->
    <title>Edit</title>
    <desc>Created with Sketch.</desc>
    <defs></defs>
    <g id="icons" stroke="none" stroke-width="1" fill="none" fill-rule="evenodd">
        <g id="Main" fill="#9C9C9C">
            <path d="M23.1623893,2.41634111 C24.2796497,3.5307512 24.2796497,5.34970421 23.15971,6.4641143 L22.3693219,7.25438107 L16.7428306,1.62875321 L17.5332187,0.838486438 C18.0744336,0.297354615 18.792481,0 19.5587556,0 C20.3250301,0 21.0430776,0.297354615 21.5842924,0.838486438 L23.1623893,2.41634111 Z M0.409930082,17.9618261 L15.7461379,2.62797187 L21.3726292,8.25359973 L6.03642141,23.587454 C5.77117253,23.8526621 5.4121488,24 5.03704938,24 L1.40662283,24 C0.626951891,24 0,23.3704655 0,22.5909142 L0,18.9610448 C0,18.5860029 0.144681206,18.2270343 0.409930082,17.9618261 Z" id="Edit"></path>
        </g>
    </g>
</svg>